<svg id="wp-script-logo" data-name="WP-Script" xmlns="http://www.w3.org/2000/svg" viewBox="0 0 1118.8 305.48"><defs><style>.cls-1{fill:#3f1d78;}</style></defs><path class="cls-1" d="M298.47,127.17c-13.17-14.28-28.84-21.68-47.32-21.68-16.53,0-29.81,4.77-39.35,14.52a1.35,1.35,0,0,1-1.92,0h0a1.31,1.31,0,0,1-.41-1v-8.13a1.38,1.38,0,0,0-1.38-1.38H168.54a1.45,1.45,0,0,0-1.36,1l-18.59,69.41A1.39,1.39,0,0,1,147,181a1.34,1.34,0,0,1-1.08-1.09l-20.11-69.38a1.45,1.45,0,0,0-1.33-1h-37a1.35,1.35,0,0,0-1.33,1L65.76,179.91A1.38,1.38,0,0,1,64.14,181a1.34,1.34,0,0,1-1.09-1.09L44.57,110.56a1.43,1.43,0,0,0-1.33-1H1.42A1.38,1.38,0,0,0,0,110.88v0a1.71,1.71,0,0,0,0,.32L44.08,248.54a1.3,1.3,0,0,0,1.3,1H82.46a1.36,1.36,0,0,0,1.33-1l20.76-69.33a1.38,1.38,0,0,1,2.71,0l20.84,69.33a1.27,1.27,0,0,0,1.3,1h36.65a1.38,1.38,0,0,1,1.38,1.38h0V304.1a1.35,1.35,0,0,0,1.33,1.38h39.3a1.38,1.38,0,0,0,1.38-1.38h0V239.86a1.35,1.35,0,0,1,1.3-1.38,1.48,1.48,0,0,1,1,.41c9.65,9.76,22.82,14.53,39.35,14.53a61.85,61.85,0,0,0,47.32-21.28c13.15-14.28,19.6-31.9,19.6-52.63A74.25,74.25,0,0,0,298.47,127.17Zm-31.9,77.27a32.09,32.09,0,0,1-23.8,9.22,33,33,0,0,1-24.09-9.22,33.79,33.79,0,0,1-9.22-24.93,33.87,33.87,0,0,1,9.22-24.91,33.34,33.34,0,0,1,24.09-9.24,32.19,32.19,0,0,1,23.8,9.24c6.42,6.15,9.51,14.55,9.51,24.91S273,198.26,266.57,204.44Z"/><path class="cls-1" d="M504.89,162.73c19.32,4.2,44.8,14.25,44.5,44.77q0,22.69-16.78,34.45c-11.19,7.54-24.91,11.47-41.44,11.47-28.86,0-48.78-10.85-59.63-32.12a1.42,1.42,0,0,1,.57-1.84l33.83-19.27a1.41,1.41,0,0,1,1.9.59h0c3.87,9.92,11.76,15,23.22,15,10.09,0,15.13-2.71,15.13-8.67s-10.84-9-24.4-12.34c-19.29-5.42-44.5-14.82-44.5-43.36A40.84,40.84,0,0,1,453,117.52c10.28-8.13,23.77-12,39.19-12,22.72,0,42.2,10.16,53.8,28.67a1.41,1.41,0,0,1-.46,1.94h0l-33.34,18a1.34,1.34,0,0,1-1.84-.51c-4.42-7.37-10.38-11.17-18.08-11.17s-11.76,2.52-11.76,7.83S491.47,159.07,504.89,162.73Z"/><path class="cls-1" d="M573.19,232.14a71.81,71.81,0,0,1-21-52.63,71.79,71.79,0,0,1,21-52.61c14.28-14.28,31.92-21.28,53.2-21.28a73,73,0,0,1,62.55,34.61,1.47,1.47,0,0,1-.51,1.93L654.22,162a1.39,1.39,0,0,1-1.87-.49h0c-5.15-9.51-13.9-14.39-26.5-14.39-18.19,0-31.63,13.55-31.63,32.52s13.55,32.52,31.63,32.52c12.6,0,21.68-4.85,26.5-14.33a1.39,1.39,0,0,1,1.85-.63h0l34.17,19.57a1.44,1.44,0,0,1,.55,1.9h0a75.12,75.12,0,0,1-115.76,13.55Z"/><path class="cls-1" d="M742.63,128c7-13.55,21.88-20.87,38-21.28a1.41,1.41,0,0,1,1.41,1.36h0v44.69a1.33,1.33,0,0,1-1.3,1.35h-.25a41.53,41.53,0,0,0-27.26,5.42c-8.68,5-13.18,14-13.18,26.59V248a1.37,1.37,0,0,1-1.38,1.38H699.46a1.34,1.34,0,0,1-1.38-1.32V248h0V110.91a1.34,1.34,0,0,1,1.21-1.44h39.39a1.38,1.38,0,0,1,1.38,1.38h0v16.46a1.38,1.38,0,0,0,1.29,1.46h0A1.41,1.41,0,0,0,742.63,128Z"/><rect class="cls-1" x="801.64" y="109.53" width="41.98" height="139.96" rx="1.38"/><path class="cls-1" d="M996.16,127.17c13.17,14.28,19.59,31.63,19.59,52.34s-6.42,38.35-19.59,52.63a61.73,61.73,0,0,1-47.35,21.28c-16.54,0-29.82-4.77-39.36-14.53a1.43,1.43,0,0,0-2,0,1.32,1.32,0,0,0-.37,1v64.23a1.38,1.38,0,0,1-1.39,1.38H866.55a1.34,1.34,0,0,1-1.38-1.32v-.06h0V110.91a1.38,1.38,0,0,1,1.38-1.38h39.22a1.38,1.38,0,0,1,1.38,1.38h0V119a1.38,1.38,0,0,0,2.36,1c9.62-9.75,22.82-14.52,39.35-14.52A62.67,62.67,0,0,1,996.16,127.17Zm-55.7,86.49a31.92,31.92,0,0,0,23.8-9.22c6.45-6.18,9.51-14.58,9.51-24.93s-3.06-18.76-9.41-24.91a32.18,32.18,0,0,0-23.79-9.24,33.3,33.3,0,0,0-24.29,9.24A33.7,33.7,0,0,0,907,179.51a33.76,33.76,0,0,0,9.24,24.93A33.15,33.15,0,0,0,940.46,213.66Z"/><path class="cls-1" d="M1048,251.65V151.37a1.38,1.38,0,0,0-1.39-1.38h-26.18a1.35,1.35,0,0,1-1.38-1.33v0h0v-37.7a1.38,1.38,0,0,1,1.38-1.38h26.18a1.39,1.39,0,0,0,1.39-1.39h0V71.72a1.38,1.38,0,0,1,1.38-1.39h39.22a1.38,1.38,0,0,1,1.38,1.39h0v36.42a1.36,1.36,0,0,0,1.33,1.39h26.12a1.38,1.38,0,0,1,1.39,1.38h0v37.56a1.38,1.38,0,0,1-1.39,1.38h-26.07a1.38,1.38,0,0,0-1.38,1.39h0V251.65"/><path class="cls-1" d="M848.9,23.85a97.63,97.63,0,0,1,13.31,10A115.74,115.74,0,0,1,875,47.41c.9,1.11,1.76,2.27,2.71,3.44a3.64,3.64,0,0,0,4.83,1,27.86,27.86,0,1,0-36.13-41.36,28.37,28.37,0,0,0-3.71,5.85A3.57,3.57,0,0,0,844.3,21C845.82,22,847.36,22.88,848.9,23.85Z"/><path class="cls-1" d="M762.85,51.82a3.65,3.65,0,0,0,4.8-1c.87-1.19,1.73-2.33,2.71-3.44A116.45,116.45,0,0,1,783.18,33.8a98.66,98.66,0,0,1,13.31-10c1.57-1,3.11-1.87,4.63-2.71a3.61,3.61,0,0,0,1.57-4.75,27.85,27.85,0,0,0-6.18-8.78,28.24,28.24,0,0,0-39.73,1.19,27.91,27.91,0,0,0,.71,38.73A26.82,26.82,0,0,0,762.85,51.82Z"/><path class="cls-1" d="M831.78,58a11.59,11.59,0,0,0-9.17,4.5,11.51,11.51,0,0,0-20.67,7c0,14.28,20.67,22.87,20.67,22.87s20.71-8.48,20.71-22.87a11.55,11.55,0,0,0-11.54-11.55h0Z"/><path class="cls-1" d="M333.93,196.74V164.68h84.61v32.06Z"/></svg>